<svg width="14" height="13" viewBox="0 0 14 13" fill="none" xmlns="http://www.w3.org/2000/svg">
<path d="M7.25332 10.456L7.0005 10.3075L6.74743 10.4556L3.35253 12.4426L3.35164 12.4432C3.22483 12.5177 3.09098 12.5016 2.9897 12.4301C2.88918 12.359 2.84375 12.2522 2.87248 12.1321L3.77227 8.38081L3.84429 8.08055L3.60808 7.88169L0.605847 5.35415L0.60567 5.354C0.417515 5.19574 0.492283 4.86712 0.788644 4.84422L0.788644 4.84422L0.791214 4.84401L4.74238 4.51813L5.03987 4.4936L5.15943 4.22009L6.70554 0.683122L6.70554 0.683124L6.70639 0.681151C6.75545 0.567609 6.86371 0.5 7 0.5C7.13629 0.5 7.24455 0.567609 7.2936 0.681152L7.2943 0.682745L8.84041 4.22766L8.95985 4.50152L9.25762 4.52608L13.2088 4.85197L13.2114 4.85216C13.5077 4.87507 13.5825 5.20369 13.3943 5.36195L13.3942 5.3621L10.3919 7.88964L10.1557 8.0885L10.2277 8.38876L11.1275 12.1401C11.1562 12.2601 11.1108 12.367 11.0103 12.438C10.909 12.5096 10.7752 12.5257 10.6484 12.4511L10.6482 12.451L7.25332 10.456Z" fill="#F8B656" stroke="#F8B656"/>
</svg>
