<svg width="14" height="13" viewBox="0 0 14 13" fill="none" xmlns="http://www.w3.org/2000/svg">
<path d="M6.90676 10.3054L7.16212 10.4575L10.5115 12.4525L10.5117 12.4526C10.7619 12.6018 11.027 12.3742 10.9717 12.1389L6.90676 10.3054ZM6.90676 10.3054L6.65114 10.4571L3.30171 12.4441L3.30082 12.4447C3.05049 12.5939 2.78528 12.3661 2.84087 12.1307L3.72861 8.37933L3.79895 8.0821L3.56661 7.88384L0.604582 5.3563L0.604406 5.35615C0.410935 5.19121 0.502686 4.86583 0.779118 4.84418L0.779118 4.84418L0.781721 4.84396L4.67997 4.51809L4.97872 4.49311L5.09744 4.21783L6.62285 0.680863L6.62285 0.680865L6.62369 0.678906C6.72536 0.440365 7.08714 0.440365 7.18881 0.678907L7.18949 0.680489L8.71489 4.22541L8.8335 4.50104L9.13253 4.52604L13.0308 4.85192L13.0334 4.85212C13.3098 4.87378 13.4016 5.19916 13.2081 5.3641L13.2079 5.36425L10.2459 7.89179L10.0135 8.09005L10.0839 8.38728L10.9716 12.1386L6.90676 10.3054Z" stroke="#F8B656"/>
</svg>
